
<svg width="214px" height="214px" viewBox="140 -333 214 214" version="1.1" xmlns="http://www.w3.org/2000/svg" xmlns:xlink="http://www.w3.org/1999/xlink">
    <!-- Generator: Sketch 42 (36781) - http://www.bohemiancoding.com/sketch -->
    <desc>Created with Sketch.</desc>
    <defs>
        <circle id="path-1" cx="100" cy="100" r="100"></circle>
        <filter x="-50%" y="-50%" width="200%" height="200%" filterUnits="objectBoundingBox" id="filter-2">
            <feMorphology radius="1.5" operator="dilate" in="SourceAlpha" result="shadowSpreadOuter1"></feMorphology>
            <feOffset dx="0" dy="2" in="shadowSpreadOuter1" result="shadowOffsetOuter1"></feOffset>
            <feGaussianBlur stdDeviation="2" in="shadowOffsetOuter1" result="shadowBlurOuter1"></feGaussianBlur>
            <feComposite in="shadowBlurOuter1" in2="SourceAlpha" operator="out" result="shadowBlurOuter1"></feComposite>
            <feColorMatrix values="0 0 0 0 0   0 0 0 0 0   0 0 0 0 0  0 0 0 0.5 0" type="matrix" in="shadowBlurOuter1"></feColorMatrix>
        </filter>
    </defs>
    <g id="Top-Heroes" stroke="none" fill="none" transform="translate(147.000000, -328.000000)">
        <g id="Achievements">
            <use fill="black" fill-opacity="1" filter="url(#filter-2)" xlink:href="#path-1"></use>
            <use stroke="#979797" stroke-width="1" fill="#6E7C8A" fill-rule="evenodd" xlink:href="#path-1"></use>
        </g>
        <path d="M123.656623,109.679763 L111.18051,44 L100.528449,100.077148 L89.8763881,44 L76.6646078,113.552641 L64.0070974,51.189378 L46.6820064,136.549704 C44.4827101,147.385586 51.6546633,156.154297 62.6971296,156.154297 L76.9417427,156.154297 L100.528449,156.154297 L123.354294,156.154297 L136.838045,156.154297 C147.874145,156.154297 155.050727,147.377022 152.853169,136.549704 L135.528078,51.189378 L123.656623,109.679763 Z" id="Combined-Shape" fill="#EFCE18" fill-rule="evenodd"></path>
        <path d="M100.571895,116.099191 L114.267402,44 L126.743515,109.679763 L138.614969,51.189378 L155.94006,136.549704 C158.137618,147.377022 150.961037,156.154297 139.924937,156.154297 L126.441186,156.154297 L100.571895,156.154297 L73.9417427,156.154297 L59.6971296,156.154297 C48.6546633,156.154297 41.4827101,147.385586 43.6820064,136.549704 L61.0070974,51.189378 L73.6646078,113.552641 L86.8763881,44 L100.571895,116.099191 Z" id="Combined-Shape" stroke="#BCB9B9" stroke-width="2"></path>
        <path d="M72.8043075,128 L76.6086149,135.189378 L69,135.189378 L72.8043075,128 Z M72.8043075,142.378756 L69,135.189378 L76.6086149,135.189378 L72.8043075,142.378756 Z" id="Combined-Shape" fill-opacity="0.6" fill="#DF5353" fill-rule="evenodd"></path>
        <path d="M91.8043075,128 L95.6086149,135.189378 L88,135.189378 L91.8043075,128 Z M91.8043075,142.378756 L88,135.189378 L95.6086149,135.189378 L91.8043075,142.378756 Z" id="Combined-Shape" fill-opacity="0.6" fill="#DF5353" fill-rule="evenodd"></path>
        <path d="M110.804307,128 L114.608615,135.189378 L107,135.189378 L110.804307,128 Z M110.804307,142.378756 L107,135.189378 L114.608615,135.189378 L110.804307,142.378756 Z" id="Combined-Shape" fill-opacity="0.6" fill="#DF5353" fill-rule="evenodd"></path>
        <path d="M128.804307,128 L132.608615,135.189378 L125,135.189378 L128.804307,128 Z M128.804307,142.378756 L125,135.189378 L132.608615,135.189378 L128.804307,142.378756 Z" id="Combined-Shape" fill-opacity="0.6" fill="#DF5353" fill-rule="evenodd"></path>
    </g>
</svg>
