<?xml version="1.0" encoding="UTF-8" standalone="no"?>
<!DOCTYPE svg PUBLIC "-//W3C//DTD SVG 1.1//EN" "http://www.w3.org/Graphics/SVG/1.1/DTD/svg11.dtd">
<svg version="1.1" xmlns="http://www.w3.org/2000/svg" xmlns:xlink="http://www.w3.org/1999/xlink" preserveAspectRatio="xMidYMid meet" viewBox="0 0 640 640"><defs><path d="M615 310C615 459.02 482.81 580 320 580C157.19 580 25 459.02 25 310C25 160.98 157.19 40 320 40C482.81 40 615 160.98 615 310Z" id="b8oXCOoID"></path><path d="M235.35 170.66C308.17 170.66 353.69 170.66 371.89 170.66C384.46 170.66 394.65 180.85 394.65 193.42C394.65 206.49 394.65 239.19 394.65 291.49C394.65 334.5 394.65 361.37 394.65 372.12C394.65 403.72 369.03 429.34 337.43 429.34C323.82 429.34 289.79 429.34 235.35 429.34L235.35 170.66Z" id="a4Ba7zLtse"></path><path d="M364.84 451.47L245.37 451.47L384.75 159.53L269.26 158.8" id="c1b87RGMR8"></path><path d="M332.98 302.92C332.98 313.12 324.06 321.4 313.07 321.4C302.08 321.4 293.15 313.12 293.15 302.92C293.15 292.72 302.08 284.44 313.07 284.44C324.06 284.44 332.98 292.72 332.98 302.92Z" id="b3dMGQPv4C"></path><clipPath id="clipdjb4dExck"><use xlink:href="#b3dMGQPv4C" opacity="1"></use></clipPath></defs><g visibility="inherit"><g visibility="inherit"><g visibility="inherit"><g><filter id="shadow382383" x="0" y="15" width="645" height="595" filterUnits="userSpaceOnUse" primitiveUnits="userSpaceOnUse"><feFlood></feFlood><feComposite in2="SourceAlpha" operator="in"></feComposite><feGaussianBlur stdDeviation="2.24"></feGaussianBlur><feOffset dx="5" dy="5" result="afterOffset"></feOffset><feFlood flood-color="#000000" flood-opacity="0.52"></feFlood><feComposite in2="afterOffset" operator="in"></feComposite><feMorphology operator="dilate" radius="5"></feMorphology><feComposite in2="SourceAlpha" operator="out"></feComposite></filter><path d="M615 310C615 459.02 482.81 580 320 580C157.19 580 25 459.02 25 310C25 160.98 157.19 40 320 40C482.81 40 615 160.98 615 310Z" id="e2pUrDgzOZ" fill="white" fill-opacity="1" filter="url(#shadow382383)"></path></g><use xlink:href="#b8oXCOoID" opacity="1" fill="#1badc3" fill-opacity="1"></use><g><use xlink:href="#b8oXCOoID" opacity="1" fill-opacity="0" stroke="#17d4e8" stroke-width="15" stroke-opacity="1"></use></g></g><g visibility="inherit"><g><filter id="shadow2473516" x="210.35" y="145.66" width="214.3" height="313.68" filterUnits="userSpaceOnUse" primitiveUnits="userSpaceOnUse"><feFlood></feFlood><feComposite in2="SourceAlpha" operator="in"></feComposite><feGaussianBlur stdDeviation="2.24"></feGaussianBlur><feOffset dx="5" dy="5" result="afterOffset"></feOffset><feFlood flood-color="#000000" flood-opacity="0.59"></feFlood><feComposite in2="afterOffset" operator="in"></feComposite><feMorphology operator="dilate" radius="5"></feMorphology><feComposite in2="SourceAlpha" operator="out"></feComposite></filter><path d="M235.35 170.66C308.17 170.66 353.69 170.66 371.89 170.66C384.46 170.66 394.65 180.85 394.65 193.42C394.65 206.49 394.65 239.19 394.65 291.49C394.65 334.5 394.65 361.37 394.65 372.12C394.65 403.72 369.03 429.34 337.43 429.34C323.82 429.34 289.79 429.34 235.35 429.34L235.35 170.66Z" id="b9KlwZWOEW" fill="white" fill-opacity="1" filter="url(#shadow2473516)"></path></g><use xlink:href="#a4Ba7zLtse" opacity="1" fill="#ffffff" fill-opacity="1"></use><g><use xlink:href="#a4Ba7zLtse" opacity="1" fill-opacity="0" stroke="#2e2e2b" stroke-width="8" stroke-opacity="1"></use></g></g><g visibility="inherit"><g><filter id="shadow908899" x="220.37" y="133.8" width="194.39" height="347.67" filterUnits="userSpaceOnUse" primitiveUnits="userSpaceOnUse"><feFlood></feFlood><feComposite in2="SourceAlpha" operator="in"></feComposite><feGaussianBlur stdDeviation="2.24"></feGaussianBlur><feOffset dx="5" dy="5" result="afterOffset"></feOffset><feFlood flood-color="#000000" flood-opacity="0.75"></feFlood><feComposite in2="afterOffset" operator="in"></feComposite><feMorphology operator="dilate" radius="5"></feMorphology><feComposite in2="SourceAlpha" operator="out"></feComposite></filter><path d="M364.84 451.47L245.37 451.47L384.75 159.53L269.26 158.8" id="dS9NQnBrw" fill="none" stroke="white" filter="url(#shadow908899)"></path></g><g><use xlink:href="#c1b87RGMR8" opacity="1" fill-opacity="0" stroke="#2e2e2b" stroke-width="8" stroke-opacity="1"></use></g></g><g visibility="inherit"><use xlink:href="#b3dMGQPv4C" opacity="1" fill="#ffffff" fill-opacity="1"></use><g clip-path="url(#clipdjb4dExck)"><use xlink:href="#b3dMGQPv4C" opacity="1" fill-opacity="0" stroke="#17d4e8" stroke-width="16" stroke-opacity="1"></use></g><g><filter id="shadow5163905" x="285.15" y="276.44" width="56.83" height="53.95" filterUnits="userSpaceOnUse" primitiveUnits="userSpaceOnUse"><feFlood></feFlood><feComposite in2="SourceAlpha" operator="out"></feComposite><feGaussianBlur stdDeviation="1"></feGaussianBlur><feOffset dx="1" dy="1" result="afterOffset"></feOffset><feFlood flood-color="#2f757f" flood-opacity="0.8"></feFlood><feComposite in2="afterOffset" operator="in"></feComposite><feMorphology operator="dilate" radius="0"></feMorphology><feComposite in2="SourceAlpha" operator="in"></feComposite></filter><path d="M332.98 302.92C332.98 313.12 324.06 321.4 313.07 321.4C302.08 321.4 293.15 313.12 293.15 302.92C293.15 292.72 302.08 284.44 313.07 284.44C324.06 284.44 332.98 292.72 332.98 302.92Z" id="baItNc5u" fill="white" fill-opacity="1" filter="url(#shadow5163905)"></path></g></g></g></g></svg>